<svg xmlns="http://www.w3.org/2000/svg" viewBox="0 0 134.73 76.4" style="enable-background:new 0 0 134.73 76.4" xml:space="preserve"><path d="M-10475.61 463.23c1.08-.94 1.62-2.18 1.62-3.71 0-1.56-.54-2.81-1.62-3.76s-2.63-1.42-4.65-1.42h-6.24v16.87h3.07v-6.58h2.34l3.72 6.58h4l-4.52-6.87c.9-.22 1.67-.58 2.28-1.11zm-7.82-6.23h3.17c1.02 0 1.8.26 2.33.77.53.52.79 1.19.79 2.03 0 .82-.29 1.49-.87 2.01-.58.52-1.43.77-2.56.77h-2.86V457zm23.64 5.82c-.16-.87-.46-1.64-.9-2.33a4.891 4.891 0 0 0-1.77-1.64c-.73-.4-1.6-.6-2.61-.6-1.08 0-2.07.26-2.96.79-.89.53-1.61 1.29-2.14 2.29s-.8 2.19-.8 3.57c0 1.34.27 2.52.81 3.52s1.25 1.78 2.15 2.33 1.88.83 2.95.83c.97 0 1.84-.18 2.6-.53a5.02 5.02 0 0 0 1.87-1.46c.48-.62.79-1.34.92-2.15h-3.09c-.11.55-.37.97-.78 1.25-.41.28-.91.42-1.51.42-.64 0-1.17-.16-1.59-.47-.42-.31-.74-.74-.95-1.29-.21-.54-.31-1.16-.32-1.86h8.16c.13-.91.12-1.8-.04-2.67zm-6.81-1.66c.43-.31.96-.47 1.59-.47.52 0 .95.11 1.28.32.33.21.59.49.77.84s.3.73.37 1.14c.04.28.06.56.06.84h-5.36c.04-.51.12-.98.3-1.4.23-.54.56-.96.99-1.27zm19.81 4.55c.54.52.81 1.18.81 1.98 0 .67-.22 1.3-.67 1.89s-1.07 1.08-1.87 1.45c-.8.37-1.72.56-2.77.56-1.21 0-2.26-.17-3.13-.5-.87-.33-1.54-.81-2.01-1.44-.47-.63-.71-1.38-.71-2.27h2.83c.03.62.27 1.08.74 1.36.47.29 1.11.43 1.91.43.44 0 .83-.07 1.18-.2.34-.13.61-.31.8-.53.19-.22.29-.48.29-.75 0-.36-.13-.63-.38-.84-.26-.2-.67-.39-1.23-.57l-2.76-.99c-.99-.36-1.75-.82-2.28-1.4-.53-.58-.79-1.27-.79-2.08 0-1.07.48-1.93 1.45-2.58.97-.65 2.26-.98 3.88-.98 1.61 0 2.86.35 3.74 1.06.88.71 1.33 1.6 1.36 2.68h-2.89c-.04-.42-.24-.75-.6-.99s-.89-.36-1.61-.36c-.65 0-1.16.13-1.53.4s-.55.57-.55.93c0 .6.51 1.05 1.53 1.35l2.99 1.12c.98.32 1.74.74 2.27 1.27zm11.2 3.04.44 2.16c-.49.19-.96.35-1.42.48s-.94.2-1.44.2c-.75 0-1.43-.14-2.05-.42-.62-.28-1.11-.7-1.48-1.27s-.55-1.3-.55-2.18v-7.07h-1.77v-2.03h1.77v-3.35h3.07v3.35h3.43v2.03h-3.43v6.97c0 1.04.49 1.56 1.48 1.56.3 0 .61-.04.91-.1.3-.09.65-.19 1.04-.33zm11.71-9.98c-.81-.35-1.77-.53-2.86-.53-1.21 0-2.24.14-3.1.42-.86.28-1.52.72-1.98 1.33-.46.6-.69 1.38-.69 2.33h3.35c0-.39.1-.72.29-1 .2-.27.47-.48.84-.63s.79-.22 1.29-.22c.86 0 1.47.21 1.83.64s.54 1.08.54 1.96v1.31c-.51-.14-1.02-.26-1.54-.35-.61-.1-1.26-.16-1.94-.16-1.05 0-1.96.14-2.73.41-.77.27-1.37.68-1.79 1.22-.42.54-.63 1.21-.63 2.01 0 .72.18 1.39.55 2 .36.62.91 1.11 1.63 1.49s1.63.57 2.71.57c.98 0 1.8-.23 2.46-.69.61-.42 1.08-.99 1.42-1.67l.25 2h2.68v-8.03c0-1.13-.23-2.07-.68-2.79-.45-.73-1.09-1.27-1.9-1.62zm-1.85 10.06c-.44.28-.98.42-1.61.42-.83 0-1.44-.17-1.82-.51-.38-.34-.57-.74-.57-1.21 0-.64.23-1.1.7-1.36s1.07-.4 1.79-.4c.49 0 1.02.04 1.59.13.46.07.88.17 1.27.28v.37c0 .42-.11.83-.34 1.25-.23.4-.56.75-1.01 1.03zm17.32-10.28h3.07v12.66h-3.07v-2.29c-.37.76-.84 1.35-1.42 1.77-.7.5-1.51.75-2.43.75-.9 0-1.71-.16-2.44-.48s-1.3-.84-1.73-1.55c-.43-.71-.64-1.65-.64-2.81v-8.06h3.07v7.75c0 .82.21 1.44.61 1.85.41.41.97.62 1.68.62.61 0 1.16-.16 1.66-.47.5-.32.9-.78 1.2-1.4.3-.62.45-1.39.45-2.31v-6.03zm14.97-.14c.19.03.37.06.55.12l-.05 3.07c-.22-.05-.47-.09-.73-.13-.26-.03-.49-.05-.7-.05-.68 0-1.24.16-1.7.49s-.8.8-1.03 1.44c-.23.63-.34 1.41-.34 2.34v5.54h-3.07v-12.66h3.07v2.53c.35-.83.78-1.48 1.31-1.92.63-.52 1.33-.79 2.1-.79.21-.02.4 0 .59.02zm11.28.36c-.81-.35-1.77-.53-2.86-.53-1.21 0-2.24.14-3.1.42-.86.28-1.52.72-1.98 1.33s-.69 1.38-.69 2.33h3.36c0-.39.1-.72.29-1 .2-.27.47-.48.84-.63.36-.15.79-.22 1.29-.22.86 0 1.47.21 1.83.64s.54 1.08.54 1.96v1.31c-.51-.14-1.03-.26-1.54-.35-.61-.1-1.26-.16-1.94-.16-1.05 0-1.96.14-2.73.41-.77.27-1.37.68-1.79 1.22-.42.54-.63 1.21-.63 2.01 0 .72.18 1.39.55 2 .36.62.91 1.11 1.63 1.49.72.38 1.63.57 2.71.57.98 0 1.8-.23 2.46-.69.61-.42 1.08-.99 1.42-1.67l.25 2h2.68v-8.03c0-1.13-.23-2.07-.68-2.79-.46-.73-1.1-1.27-1.91-1.62zm-1.85 10.06c-.44.28-.98.42-1.61.42-.83 0-1.44-.17-1.82-.51-.38-.34-.57-.74-.57-1.21 0-.64.23-1.1.7-1.36.47-.27 1.07-.4 1.79-.4.49 0 1.02.04 1.59.13.46.07.87.17 1.27.28v.37c0 .42-.12.83-.34 1.25-.23.4-.57.75-1.01 1.03zm20.12-7.94c.35.84.53 1.82.53 2.94v7.38h-3.07v-7.38c0-.94-.22-1.64-.68-2.12s-1.04-.71-1.77-.71c-.62 0-1.16.17-1.63.51-.47.34-.84.85-1.11 1.53-.27.68-.4 1.53-.4 2.54v5.64h-3.07v-12.61h2.68l.33 2.11c.37-.71.83-1.26 1.39-1.66.75-.54 1.62-.81 2.63-.81 1.04 0 1.91.23 2.61.7s1.21 1.1 1.56 1.94zm12.12 10.02c-.48.19-.96.35-1.42.48s-.94.2-1.44.2c-.75 0-1.43-.14-2.05-.42-.62-.28-1.12-.7-1.48-1.27-.37-.57-.55-1.3-.55-2.18v-7.07h-1.77v-2.03h1.77v-3.35h3.07v3.35h3.43v2.03h-3.43v6.97c0 1.04.49 1.56 1.48 1.56.3 0 .61-.04.91-.1.3-.07.65-.17 1.04-.31l.44 2.14zm-46.69-52.93v-2.52c-.03-.3-.07-.61-.1-.91-.43-4.45-2.26-8.66-5.25-11.99a21.006 21.006 0 0 0-18.33-7.24c-4.46.38-8.68 2.21-12 5.22a21.126 21.126 0 0 0-7.34 15.27c-.24 4.18.82 8.34 3.02 11.91 3.17 5.42 8.58 9.15 14.77 10.19.81.15 1.63.23 2.45.34h2.52c.82-.11 1.64-.18 2.45-.34 6.2-1.05 11.61-4.79 14.78-10.22 1.73-2.83 2.74-6.04 2.96-9.35.01-.12.04-.24.07-.36zm-1.6-1.22c-.02 11-8.96 19.9-19.97 19.88-11-.02-19.9-8.96-19.88-19.97.02-11 8.96-19.9 19.97-19.88 10.99.05 19.88 8.98 19.88 19.97zm-3.37-4.41a17.03 17.03 0 0 1-7.96 19.12c-.06-1.02-.12-1.99-.17-2.96-.09-1.82-.18-3.64-.28-5.46-.01-.27.04-.39.32-.47a5.51 5.51 0 0 0 2.72-1.82c.38-.46.57-1.06.53-1.66-.03-1.65-.04-3.3-.17-4.95-.2-2.46-.49-4.91-.75-7.4h-.85v11.45h-1.06v-11.46h-1.18v11.46h-1.06v-11.45h-1.18v11.46h-1.04v-11.45h-1.08c-.1.81-.22 1.62-.29 2.45-.24 2.76-.48 5.52-.67 8.29-.03.75 0 1.51.09 2.25.04.3.15.58.33.83.69.98 1.7 1.69 2.86 2.01.27.07.31.2.29.45-.16 2.92-.31 5.83-.46 8.75l-.03.51c-.04.78.11.6-.66.83-1.56.47-3.18.71-4.8.71-1.27 0-2.53-.15-3.76-.43-.25-.05-.35-.13-.36-.4-.18-3.59-.36-7.18-.55-10.77-.01-.13 0-.26 0-.41.2-.08.39-.16.59-.22a5.265 5.265 0 0 0 3.27-2.92 9.47 9.47 0 0 0 .79-6.55 7.498 7.498 0 0 0-3.01-4.46 4.525 4.525 0 0 0-5.98.42 7.778 7.778 0 0 0-2.72 6.21c-.01 1.67.42 3.32 1.25 4.77a5.263 5.263 0 0 0 3.26 2.59c.33.09.41.25.39.58-.16 2.85-.3 5.7-.46 8.55-.02.43-.05.86-.08 1.31a16.966 16.966 0 0 1-9.65-17.13c.84-8.1 7.27-14.5 15.37-15.29 8.35-.81 16.06 4.55 18.2 12.66zm-24.28 7.93c-.48-.3-.92-.65-1.33-1.04a6.31 6.31 0 0 1-1.57-3.79 7.09 7.09 0 0 1 1.02-3.62c.08-.12.25-.17.38-.26.05.15.07.3.06.46a8.642 8.642 0 0 0 1.69 7.91c.06.1.1.22.13.34-.08 0-.19.02-.27.02-.04.01-.08 0-.11-.02z" style="fill:#fff" transform="translate(10486.5 -395.185)"/></svg>