<svg xmlns="http://www.w3.org/2000/svg" viewBox="0 0 165.9 43" style="enable-background:new 0 0 165.9 43" xml:space="preserve"><path d="M61.1 22c.9-.8 1.4-1.9 1.4-3.1 0-1.2-.5-2.4-1.4-3.2-1.1-.9-2.5-1.3-3.9-1.2h-5.3v14.3h2.6v-5.6h2l3.1 5.6H63L59.2 23c.7-.2 1.3-.5 1.9-1zm-6.6-5.2h2.7c.7-.1 1.4.2 2 .7.5.5.7 1.1.7 1.7 0 .6-.2 1.3-.7 1.7-.6.5-1.4.7-2.2.7h-2.4v-4.8zm20 4.9c-.1-.7-.4-1.4-.8-2-.4-.6-.9-1.1-1.5-1.4-.7-.4-1.4-.5-2.2-.5-.9 0-1.7.2-2.5.7-.8.5-1.4 1.1-1.8 1.9-.5.9-.7 2-.7 3s.2 2.1.7 3c.4.8 1 1.5 1.8 2 .7.5 1.6.7 2.5.7.8 0 1.5-.1 2.2-.4.6-.3 1.2-.7 1.6-1.2.4-.5.7-1.2.8-1.8H72c-.1.4-.3.8-.7 1.1-.4.1-.8.2-1.3.2s-1-.1-1.3-.4c-.4-.3-.6-.7-.8-1.1-.2-.5-.3-1-.3-1.6h6.9c.1-.7.1-1.5 0-2.2zm-5.8-1.4c.4-.3.9-.4 1.3-.4s.8.1 1.1.3c.3.2.5.4.7.7.2.3.3.6.3 1 0 .2.1.5.1.7h-4.5c0-.4.1-.8.3-1.2.1-.5.3-.8.7-1.1zm86.9-.2c.3.8.5 1.6.4 2.5v6.2h-2.6v-6.2c0-.6-.2-1.3-.6-1.8-.4-.4-.9-.6-1.5-.6-.5 0-1 .1-1.4.4-.4.3-.8.8-.9 1.3-.2.7-.3 1.4-.3 2.1v4.8h-2.6V18.1h2.3l.3 1.8c.3-.5.7-1 1.2-1.4.6-.5 1.4-.7 2.2-.7.8 0 1.5.2 2.2.6.6.4 1.1 1 1.3 1.7zm10.3 8.4c-.4.2-.8.3-1.2.4-.4.1-.8.2-1.2.2-.6 0-1.2-.1-1.7-.4-.5-.2-1-.6-1.3-1.1-.3-.6-.5-1.2-.5-1.8v-6h-1.5v-1.7h1.5v-2.8h2.6v2.8h2.9v1.7h-2.9v5.9c0 .9.4 1.3 1.3 1.3.3 0 .5 0 .8-.1l.9-.3.3 1.9zm-80.4-4.4c.5.4.7 1 .7 1.7 0 .6-.2 1.1-.6 1.6-.4.5-1 1-1.6 1.2-.7.3-1.5.5-2.3.5-.9 0-1.8-.1-2.6-.4-.7-.2-1.3-.7-1.7-1.2-.4-.6-.6-1.2-.6-1.9h2.4c0 .5.2.9.6 1.2.5.3 1.1.4 1.6.4.3 0 .7 0 1-.2.3-.1.5-.2.7-.5.2-.2.2-.4.2-.6 0-.3-.1-.5-.3-.7-.3-.2-.7-.4-1-.5l-2.3-.8c-.7-.2-1.4-.6-1.9-1.2-.4-.5-.7-1.1-.7-1.8 0-.9.5-1.7 1.2-2.2 1-.6 2.1-.9 3.3-.8 1.1-.1 2.2.2 3.2.9.7.5 1.1 1.4 1.1 2.3h-2.4c0-.3-.2-.7-.5-.8-.4-.2-.9-.3-1.4-.3-.5 0-.9.1-1.3.3-.3.2-.5.5-.5.8 0 .5.4.9 1.3 1.1l2.5.9c.7.2 1.3.5 1.9 1zm19.4-5.8c-.8-.3-1.6-.5-2.4-.4-.9 0-1.8.1-2.6.4-.7.2-1.2.6-1.7 1.1-.4.6-.6 1.3-.6 2h2.8c0-.3.1-.6.2-.8.2-.2.4-.4.7-.5.3-.1.7-.2 1.1-.2.6-.1 1.1.1 1.5.5.3.5.5 1.1.5 1.7v.9c-.4-.1-.9-.2-1.3-.3-.5-.1-1.1-.1-1.6-.1-.8 0-1.6.1-2.3.3-.6.2-1.1.5-1.5 1-.4.5-.6 1.1-.5 1.7 0 .6.2 1.2.5 1.7s.8 1 1.4 1.3c.7.3 1.5.5 2.3.5.7 0 1.5-.2 2.1-.6.5-.4.9-.9 1.2-1.4l.2 1.7h2.3V22c0-.8-.2-1.6-.6-2.4-.5-.6-1.1-1.1-1.7-1.3zm-1.6 8.5c-.4.2-.9.4-1.4.4-.5 0-1.1-.1-1.5-.4-.3-.3-.5-.6-.5-1 0-.5.2-.9.6-1.2.5-.2 1-.4 1.5-.3.4 0 .9 0 1.3.1s.7.1 1.1.3v.3c0 .4-.1.7-.3 1-.1.3-.4.6-.8.8zm27.3-8.8c.2 0 .3.1.5.1v2.6c-.2 0-.4-.1-.6-.1-.2 0-.4 0-.6-.1-.5 0-1 .1-1.4.4-.4.3-.7.7-.9 1.2-.2.6-.3 1.3-.3 1.9v4.7h-2.6V18.1h2.6v2.1c.2-.6.6-1.1 1.1-1.6.5-.4 1.1-.7 1.8-.7.1 0 .3 0 .4.1zm-12.6.1h2.6v10.7H118v-1.9c-.3.6-.7 1.1-1.2 1.5-.6.4-1.3.6-2 .6s-1.4-.1-2.1-.4c-.6-.3-1.1-.7-1.5-1.3-.4-.7-.6-1.6-.5-2.4v-6.8h2.6v6.6c0 .6.1 1.1.5 1.6.4.4.9.6 1.4.5.5 0 1-.1 1.4-.4.4-.3.8-.7 1-1.2.3-.6.4-1.3.4-2v-5.1zm22.2.2c-.8-.3-1.6-.5-2.4-.4-.9 0-1.8.1-2.6.4-.7.2-1.2.6-1.7 1.1-.4.6-.6 1.3-.6 2h2.8c0-.3.1-.6.2-.8.2-.2.4-.4.7-.5.3-.1.7-.2 1.1-.2.6-.1 1.1.1 1.5.5.3.5.5 1.1.5 1.7v.9c-.4-.1-.9-.2-1.3-.3-.5-.1-1.1-.1-1.6-.1-.8 0-1.6.1-2.3.3-.6.2-1.1.5-1.5 1-.4.5-.6 1.1-.5 1.7 0 .6.2 1.2.5 1.7s.8 1 1.4 1.3c.7.3 1.5.5 2.3.5.7 0 1.5-.2 2.1-.6.5-.4.9-.9 1.2-1.4l.2 1.7h2.3V22c0-.8-.2-1.6-.6-2.4-.5-.6-1.1-1.1-1.7-1.3zm-1.6 8.5c-.4.2-.9.4-1.4.4-.5 0-1.1-.1-1.5-.4-.3-.3-.5-.6-.5-1 0-.5.2-.9.6-1.2.5-.2 1-.4 1.5-.3.4 0 .9 0 1.3.1s.7.1 1.1.3v.3c0 .4-.1.7-.3 1.1-.2.2-.4.5-.8.7zM95 26.7l.4 1.8c-.4.2-.8.3-1.2.4-.4.1-.8.2-1.2.2-.6 0-1.2-.1-1.7-.4-.5-.2-1-.6-1.3-1.1-.3-.6-.5-1.2-.5-1.8v-6H88v-1.7h1.5v-2.8h2.6v2.8H95v1.7h-2.9v5.9c0 .9.4 1.3 1.3 1.3.3 0 .5 0 .8-.1.2 0 .5-.1.8-.2zM37.7 7.3C33.2 2 26.3-.7 19.4.1c-4.5.4-8.7 2.2-12 5.2C2.9 9.2.2 14.7 0 20.6c-.2 4.2.8 8.3 3 11.9 3.2 5.4 8.6 9.1 14.8 10.2.8.2 1.6.2 2.4.3h2.5l2.4-.3c6.2-1.1 11.6-4.8 14.8-10.2 1.7-2.8 2.7-6 3-9.3 0-.1 0-.2.1-.4v-2.5c0-.3-.1-.6-.1-.9-.4-4.5-2.2-8.7-5.2-12.1zm3.7 14.2c0 11-9 19.9-20 19.9s-19.9-9-19.9-20 9-19.9 20-19.9c11.1.1 19.9 9.1 19.9 20zm-3.3-4.4c2 7.4-1.3 15.3-8 19.1-.1-1-.1-2-.2-3-.1-1.8-.2-3.6-.3-5.5 0-.3 0-.4.3-.5 1.1-.3 2-1 2.7-1.8.4-.5.6-1.1.5-1.7 0-1.7 0-3.3-.2-4.9-.2-2.5-.5-4.9-.7-7.4h-.8V23h-1.1V11.5h-1.2V23H28V11.5h-1V23h-1V11.5h-1.1l-.3 2.4c-.2 2.8-.5 5.5-.7 8.3 0 .8 0 1.5.1 2.3 0 .3.2.6.3.8.7 1 1.7 1.7 2.9 2 .3.1.3.2.3.4-.2 2.9-.3 5.8-.5 8.7v.5c0 .8.1.6-.7.8-1.6.5-3.2.7-4.8.7-1.3 0-2.5-.1-3.8-.4-.2-.1-.4-.1-.4-.4l-.6-10.8v-.4c.2-.1.4-.2.6-.2 1.5-.4 2.7-1.5 3.3-2.9 1-2 1.3-4.3.8-6.5-.4-1.8-1.5-3.4-3-4.5-1.8-1.4-4.4-1.2-6 .4-1.8 1.5-2.8 3.8-2.7 6.2 0 1.7.4 3.3 1.2 4.8.7 1.3 1.9 2.2 3.3 2.6.3.1.4.2.4.6-.2 2.8-.3 5.7-.5 8.5 0 .4 0 .9-.1 1.3-6.5-3.1-10.4-9.9-9.7-17.1.8-8.1 7.3-14.5 15.4-15.3 8.5-.6 16.2 4.7 18.4 12.8zm-24.3 8c-.5-.3-.9-.6-1.3-1-.9-1.1-1.5-2.4-1.6-3.8 0-1.3.4-2.5 1-3.6.1-.1.2-.2.4-.3 0 .1.1.3.1.5-.8 2.8-.1 5.7 1.7 7.9.1.1.1.2.1.3h-.4z" style="fill:#fff"/></svg>